<svg width="80" height="80" viewBox="0 0 80 80" fill="none" xmlns="http://www.w3.org/2000/svg">
<rect width="80" height="80" rx="8" fill="#1E8FFE"/>
<path fill-rule="evenodd" clip-rule="evenodd" d="M44.1973 38.1392L44.4235 38.3503L44.6883 37.8506L45.1123 37.0946L45.3268 36.7067L45.1106 36.4993L44.1973 38.1392Z" fill="white"/>
<path fill-rule="evenodd" clip-rule="evenodd" d="M43.2148 37.3605L43.4646 37.5481L43.6791 37.0195L43.8601 36.5955L44.041 36.1716L44.222 35.7476L43.9589 35.5942L43.2148 37.3605Z" fill="white"/>
<path fill-rule="evenodd" clip-rule="evenodd" d="M42.1094 36.6219L42.3758 36.7879L42.9775 34.8737L42.7144 34.7456L42.1965 36.3549L42.1094 36.6219Z" fill="white"/>
<path fill-rule="evenodd" clip-rule="evenodd" d="M40.8945 36.0088L41.1811 36.1387L41.6118 34.1L41.4761 34.0405L41.3252 33.9719L40.8945 36.0088Z" fill="white"/>
<path fill-rule="evenodd" clip-rule="evenodd" d="M28.0078 32.2693L28.4301 32.9766L29.2949 34.3675L29.7323 35.082L30.1395 34.9521L29.7323 34.2557L29.3016 33.5593L28.4402 32.1665L28.0078 32.2693Z" fill="white"/>
<path fill-rule="evenodd" clip-rule="evenodd" d="M25.7578 32.9724L26.0025 33.3242L26.2773 33.6724L26.4097 33.8401L27.9364 35.7561L28.3437 35.601L27.8241 34.8974L27.2745 34.1992L26.7332 33.5172L26.1885 32.8136L25.7578 32.9724Z" fill="white"/>
<path fill-rule="evenodd" clip-rule="evenodd" d="M23.4805 33.9712L24.8178 35.317L26.187 36.6539L26.5708 36.423L25.9172 35.7573L25.4379 35.2665L25.2586 35.1006L23.9346 33.7655L23.4805 33.9712Z" fill="white"/>
<path fill-rule="evenodd" clip-rule="evenodd" d="M21.3008 35.2381L21.6594 35.5737L24.438 37.7657L24.8469 37.5077L24.6642 37.3435L22.504 35.6188L21.708 34.9801L21.3008 35.2381Z" fill="white"/>
<path fill-rule="evenodd" clip-rule="evenodd" d="M17.293 38.7371L17.8125 38.9915L20.9095 40.4546L21.5765 40.7668L21.8899 40.368L19.2068 39.0889L17.6583 38.3564L17.293 38.7371Z" fill="white"/>
<path fill-rule="evenodd" clip-rule="evenodd" d="M15.6484 40.8864L15.9199 40.9784L16.2082 41.083L20.4012 42.53L20.5269 42.3171L20.666 42.0916L20.19 41.9274L18.2242 41.2328L15.9836 40.448L15.6484 40.8864Z" fill="white"/>
<path fill-rule="evenodd" clip-rule="evenodd" d="M14.3047 43.2627L18.8898 44.2857L19.4563 44.3921L19.6607 43.9411L15.7526 43.0462L14.5209 42.7738L14.3047 43.2627Z" fill="white"/>
<path fill-rule="evenodd" clip-rule="evenodd" d="M45.1582 39.0499L45.9224 39.8203L46.1587 39.4432L47.4072 37.5904L47.2447 37.4028L46.7134 36.8417" fill="white"/>
<path fill-rule="evenodd" clip-rule="evenodd" d="M13.3477 45.7892L13.6594 45.8162L13.9845 45.8523L15.8883 46.0724L18.7221 46.3863L18.8713 45.9209L16.7279 45.6575L13.4918 45.2732L13.3477 45.7892Z" fill="white"/>
<path fill-rule="evenodd" clip-rule="evenodd" d="M39.0742 35.1807L40.2624 35.6534L40.3127 35.1464L40.5389 33.0699L40.5858 32.6549L40.6311 32.24L40.1619 32.0469L39.4429 31.7727L39.3424 32.6567L39.1999 33.898L39.0742 35.1807Z" fill="white"/>
<path fill-rule="evenodd" clip-rule="evenodd" d="M28.7754 30.1281L29.8127 32.3652L30.339 33.4747L30.9339 34.734L32.4908 34.4508L30.4764 30H30.4596L28.7754 30.1281Z" fill="white"/>
<path fill-rule="evenodd" clip-rule="evenodd" d="M16.3652 36.0111L18.6092 37.3606L19.3684 37.808L19.7354 38.0317L21.2453 38.9356L22.4754 39.6825L23.7675 38.3889L19.7538 35.8451L17.9472 34.6941L17.1764 35.3616L16.3652 36.0111Z" fill="white"/>
<path fill-rule="evenodd" clip-rule="evenodd" d="M9 50.0067H18.0111L18.4736 47.2861H17.7312L17.205 47.2608L13.9706 47.1833L13.4444 47.158L12.893 47.1562L11.8205 47.1255L11.0228 47.1075L10.7613 47.0804H10.21L9.68207 47.0552L9 49.9869V49.9959V50.0067Z" fill="white"/>
<path d="M26.8523 49.8971L26.5574 49.0636H25.6089L25.3173 49.8971H25.0391L25.9742 47.2667H26.2055L27.1356 49.8971H26.8523ZM26.4719 48.7894L26.1971 47.9775C26.1619 47.8747 26.125 47.7484 26.0865 47.5987C26.063 47.7141 26.0295 47.8404 25.9842 47.9775L25.7061 48.7894H26.4719Z" fill="white"/>
<path d="M27.4609 47.2756H28.1296C28.443 47.2756 28.6709 47.328 28.81 47.4308C28.9508 47.5354 29.0212 47.6996 29.0212 47.9233C29.0212 48.0785 28.9826 48.2066 28.9039 48.3076C28.8251 48.4086 28.7111 48.4736 28.562 48.5042V48.5223C28.9206 48.5908 29.0999 48.8001 29.0999 49.1501C29.0999 49.3847 29.0279 49.5669 28.8854 49.6986C28.743 49.8303 28.5419 49.8952 28.2855 49.8952H27.4609V47.2756ZM27.7358 48.3978H28.1883C28.3827 48.3978 28.5218 48.3635 28.6072 48.2968C28.6927 48.23 28.7346 48.1164 28.7346 47.9558C28.7346 47.8097 28.6877 47.7032 28.5921 47.6383C28.4966 47.5733 28.3458 47.5408 28.1397 47.5408H27.7358V48.3978ZM27.7358 48.6558V49.6354H28.2285C28.4195 49.6354 28.5637 49.5939 28.6592 49.5127C28.7564 49.4316 28.8033 49.3035 28.8033 49.1285C28.8033 48.9661 28.7547 48.847 28.6558 48.7694C28.557 48.6937 28.4061 48.654 28.205 48.654H27.7358V48.6558Z" fill="white"/>
<path d="M30.3365 49.8952H30.0616V47.5463H29.3125V47.2756H31.0856V47.5463H30.3365V49.8952Z" fill="white"/>
<path d="M33.4959 48.5811C33.4959 49.0014 33.4003 49.3298 33.2093 49.5697C33.0182 49.8097 32.7518 49.9306 32.4116 49.9306C32.063 49.9306 31.7949 49.8133 31.6055 49.577C31.4161 49.3406 31.3223 49.0087 31.3223 48.5775C31.3223 48.1517 31.4178 47.8197 31.6072 47.5852C31.7965 47.3507 32.0663 47.2334 32.4166 47.2334C32.7568 47.2334 33.0216 47.3525 33.2126 47.5924C33.4003 47.8324 33.4959 48.1607 33.4959 48.5811ZM31.6105 48.5811C31.6105 48.9365 31.6792 49.2053 31.815 49.3893C31.9507 49.5733 32.1501 49.6636 32.4099 49.6636C32.6713 49.6636 32.8691 49.5715 33.0032 49.3893C33.1372 49.2071 33.2043 48.9365 33.2043 48.5811C33.2043 48.2293 33.1372 47.9623 33.0048 47.7782C32.8724 47.596 32.6747 47.5058 32.4133 47.5058C32.1518 47.5058 31.9524 47.5978 31.815 47.7819C31.6775 47.9659 31.6105 48.2311 31.6105 48.5811Z" fill="white"/>
<path d="M35.0709 49.8934L34.2681 47.5715H34.2547C34.2698 47.7555 34.2782 47.9738 34.2782 48.2282V49.8952H34.0234V47.2756H34.4374L35.1865 49.437H35.1999L35.9557 47.2756H36.3663V49.8952H36.0914V48.2066C36.0914 48.0135 36.0998 47.8024 36.1149 47.5751H36.1015L35.2921 49.8934H35.0709Z" fill="white"/>
<path d="M39.0681 48.5811C39.0681 49.0014 38.9726 49.3298 38.7816 49.5697C38.5905 49.8097 38.324 49.9306 37.9838 49.9306C37.6353 49.9306 37.3671 49.8133 37.1778 49.577C36.9884 49.3406 36.8945 49.0087 36.8945 48.5775C36.8945 48.1517 36.9901 47.8197 37.1794 47.5852C37.3688 47.3507 37.6386 47.2334 37.9889 47.2334C38.3291 47.2334 38.5939 47.3525 38.7849 47.5924C38.9726 47.8324 39.0681 48.1607 39.0681 48.5811ZM37.1828 48.5811C37.1828 48.9365 37.2515 49.2053 37.3872 49.3893C37.523 49.5733 37.7224 49.6636 37.9822 49.6636C38.2436 49.6636 38.4413 49.5715 38.5754 49.3893C38.7095 49.2071 38.7765 48.9365 38.7765 48.5811C38.7765 48.2293 38.7095 47.9623 38.5771 47.7782C38.4447 47.596 38.247 47.5058 37.9855 47.5058C37.7241 47.5058 37.5247 47.5978 37.3872 47.7819C37.2515 47.9659 37.1828 48.2311 37.1828 48.5811Z" fill="white"/>
<path d="M41.1291 49.1321C41.1291 49.3919 41.0587 49.5849 40.9196 49.7094C40.7805 49.8339 40.5694 49.8952 40.2878 49.8952H39.5957V47.2756H40.99V47.5463H39.8705V48.3942H40.2376C40.4454 48.3942 40.6146 48.4213 40.7453 48.4736C40.8761 48.5259 40.9716 48.6053 41.0353 48.7099C41.0989 48.8146 41.1291 48.9553 41.1291 49.1321ZM39.8705 49.6336H40.2577C40.4621 49.6336 40.6113 49.5939 40.7051 49.5164C40.799 49.4388 40.8459 49.3107 40.8459 49.1321C40.8459 48.9625 40.799 48.8416 40.7034 48.7694C40.6079 48.6973 40.4437 48.6612 40.2074 48.6612H39.8722V49.6336H39.8705Z" fill="white"/>
<path d="M41.6289 47.2756H41.887V48.7334C41.887 49.0022 41.8786 49.2457 41.8635 49.4622H41.8769L43.2042 47.2756H43.5059V49.8952H43.2478V48.4519C43.2478 48.212 43.2562 47.9594 43.2746 47.696H43.2595L41.9306 49.8952H41.6289V47.2756Z" fill="white"/>
<path d="M45.8339 49.8952H45.559V47.5463H44.7898L44.7395 47.9756C44.6742 48.5475 44.6155 48.9661 44.5652 49.2313C44.515 49.4965 44.4496 49.6805 44.3675 49.7852C44.2854 49.8898 44.1764 49.9403 44.0407 49.9367C43.9602 49.9367 43.8899 49.9223 43.8262 49.8916V49.6354C43.8848 49.6661 43.9452 49.6823 44.0088 49.6823C44.0658 49.6823 44.1161 49.6571 44.158 49.6048C44.1999 49.5524 44.2384 49.4622 44.272 49.3341C44.3055 49.206 44.3457 48.9625 44.396 48.6035C44.4462 48.2444 44.5015 47.8024 44.5619 47.2756H45.8339V49.8952Z" fill="white"/>
<path d="M46.4883 47.2756H46.7464V48.7334C46.7464 49.0022 46.738 49.2457 46.7229 49.4622H46.7363L48.0636 47.2756H48.3652V49.8952H48.1072V48.4519C48.1072 48.212 48.1155 47.9594 48.134 47.696H48.1189L46.7899 49.8952H46.4883V47.2756Z" fill="white"/>
<path d="M50.8826 47.5087C50.6228 47.5087 50.4167 47.6043 50.2676 47.7955C50.1167 47.9868 50.0413 48.2502 50.0413 48.5839C50.0413 48.9267 50.1134 49.1919 50.2592 49.3795C50.405 49.5672 50.6111 49.6592 50.8793 49.6592C51.0435 49.6592 51.2329 49.6267 51.444 49.5599V49.827C51.2798 49.8955 51.0787 49.9298 50.8374 49.9298C50.4888 49.9298 50.2206 49.8125 50.0313 49.578C49.8419 49.3434 49.748 49.0115 49.748 48.5803C49.748 48.3097 49.7933 48.0733 49.8855 47.8713C49.976 47.6674 50.1084 47.5123 50.281 47.4022C50.4536 47.2922 50.6547 47.238 50.8893 47.238C51.1373 47.238 51.3535 47.2886 51.5395 47.3878L51.4222 47.6494C51.2412 47.5556 51.0619 47.5087 50.8826 47.5087Z" fill="white"/>
<path d="M54.585 49.8952H54.3102V47.5463H53.0952V49.8952H52.8203V47.2756H54.585V49.8952Z" fill="white"/>
<path d="M56.7362 48.0388C56.7362 48.304 56.6541 48.5078 56.4916 48.6504C56.329 48.7929 56.0944 48.8651 55.7894 48.8651H55.5112V49.8952H55.2363V47.2756H55.8497C56.4413 47.2756 56.7362 47.53 56.7362 48.0388ZM55.5112 48.6035H55.7592C56.0022 48.6035 56.1798 48.5602 56.2888 48.4718C56.3977 48.3852 56.453 48.2444 56.453 48.0532C56.453 47.88 56.4011 47.7501 56.2988 47.6653C56.1966 47.5805 56.0374 47.5372 55.8195 47.5372H55.5128V48.6035H55.5112Z" fill="white"/>
<path d="M59.2849 48.5811C59.2849 49.0014 59.1894 49.3298 58.9983 49.5697C58.8073 49.8097 58.5408 49.9306 58.2006 49.9306C57.8521 49.9306 57.5839 49.8133 57.3945 49.577C57.2052 49.3406 57.1113 49.0087 57.1113 48.5775C57.1113 48.1517 57.2069 47.8197 57.3962 47.5852C57.5856 47.3507 57.8554 47.2334 58.2057 47.2334C58.5459 47.2334 58.8106 47.3525 59.0017 47.5924C59.1894 47.8324 59.2849 48.1607 59.2849 48.5811ZM57.3996 48.5811C57.3996 48.9365 57.4683 49.2053 57.604 49.3893C57.7398 49.5733 57.9392 49.6636 58.199 49.6636C58.4604 49.6636 58.6581 49.5715 58.7922 49.3893C58.9263 49.2071 58.9933 48.9365 58.9933 48.5811C58.9933 48.2293 58.9263 47.9623 58.7939 47.7782C58.6615 47.596 58.4637 47.5058 58.2023 47.5058C57.9409 47.5058 57.7415 47.5978 57.604 47.7819C57.4666 47.9659 57.3996 48.2311 57.3996 48.5811Z" fill="white"/>
<path d="M61.3459 49.1321C61.3459 49.3919 61.2755 49.5849 61.1364 49.7094C60.9973 49.8339 60.7862 49.8952 60.5046 49.8952H59.8125V47.2756H61.2068V47.5463H60.0873V48.3942H60.4544C60.6622 48.3942 60.8314 48.4213 60.9621 48.4736C61.0929 48.5259 61.1884 48.6053 61.2521 48.7099C61.3157 48.8146 61.3459 48.9553 61.3459 49.1321ZM60.0857 49.6336H60.4728C60.6772 49.6336 60.8264 49.5939 60.9202 49.5164C61.0141 49.4388 61.0593 49.3107 61.0593 49.1321C61.0593 48.9625 61.0124 48.8416 60.9169 48.7694C60.8214 48.6973 60.6571 48.6612 60.4208 48.6612H60.0857V49.6336Z" fill="white"/>
<path d="M63.1607 49.8952H61.8418V47.2756H63.1607V47.5463H62.1166V48.3906H63.097V48.6594H62.1166V49.6228H63.1607V49.8952Z" fill="white"/>
<path d="M65.0044 47.2756V47.5499H63.9604V49.8952H63.6855V47.2756H65.0044Z" fill="white"/>
<path d="M67.4627 48.5811C67.4627 49.0014 67.3671 49.3298 67.1761 49.5697C66.985 49.8097 66.7186 49.9306 66.3784 49.9306C66.0298 49.9306 65.7617 49.8133 65.5723 49.577C65.3829 49.3406 65.2891 49.0087 65.2891 48.5775C65.2891 48.1517 65.3846 47.8197 65.574 47.5852C65.7633 47.3507 66.0331 47.2334 66.3834 47.2334C66.7236 47.2334 66.9884 47.3525 67.1794 47.5924C67.3671 47.8324 67.4627 48.1607 67.4627 48.5811ZM65.5773 48.5811C65.5773 48.9365 65.646 49.2053 65.7818 49.3893C65.9175 49.5733 66.1169 49.6636 66.3767 49.6636C66.6381 49.6636 66.8359 49.5715 66.9699 49.3893C67.104 49.2071 67.1711 48.9365 67.1711 48.5811C67.1711 48.2293 67.104 47.9623 66.9716 47.7782C66.8392 47.596 66.6415 47.5058 66.38 47.5058C66.1186 47.5058 65.9192 47.5978 65.7818 47.7819C65.646 47.9659 65.5773 48.2311 65.5773 48.5811Z" fill="white"/>
<path d="M69.0357 49.8934L68.233 47.5715H68.2196C68.2346 47.7555 68.243 47.9738 68.243 48.2282V49.8952H67.9883V47.2756H68.4039L69.153 49.437H69.1664L69.9222 47.2756H70.3328V49.8952H70.058V48.2066C70.058 48.0135 70.0647 47.8024 70.0814 47.5751H70.068L69.2586 49.8934H69.0357Z" fill="white"/>
<path fill-rule="evenodd" clip-rule="evenodd" d="M30.6518 40.2208L33.1086 40.2244L29.5859 37.4045L30.6518 40.2208Z" fill="white"/>
<path fill-rule="evenodd" clip-rule="evenodd" d="M49.1873 45.476C50.0822 45.476 49.9549 45.55 49.9515 45.2072C49.9498 44.9095 49.9833 43.0098 49.9616 42.8745H50.0051C50.0219 42.9665 50.0554 43.0296 50.0856 43.1072L50.6369 44.5776C50.7207 44.8211 50.6369 44.7814 51.1062 44.7814C51.1782 44.7814 51.2838 44.4296 51.324 44.3268C51.376 44.1915 51.8486 42.9268 51.9056 42.8763L51.9072 43.5131C51.9089 43.7946 51.8754 45.2776 51.9072 45.4778C52.7736 45.4778 52.6714 45.5392 52.6748 45.2902L52.6982 42.6923C52.7016 42.5425 52.6982 42.3603 52.7033 42.2196C52.71 42.0211 52.7418 41.8064 52.6429 41.8064H51.7162C51.619 41.8064 51.4464 42.3802 51.4028 42.4902L50.8967 43.7116C50.8799 43.6034 50.8146 43.4464 50.781 43.358L50.3973 42.3152C50.3537 42.1889 50.3135 42.1059 50.2716 41.9742C50.2079 41.774 50.2364 41.8028 50.0135 41.8064C49.7487 41.8101 49.4806 41.8064 49.2158 41.8064C49.199 42.0951 49.2091 42.4018 49.2024 42.7067C49.1907 42.9521 49.1588 45.292 49.1873 45.476ZM51.8955 42.8258L51.9022 42.833C51.9039 42.833 51.8938 42.8294 51.8955 42.8258Z" fill="white"/>
<path fill-rule="evenodd" clip-rule="evenodd" d="M53.4703 44.0582C53.7853 46.0427 56.4097 46.0139 56.6946 44.1665C56.9611 42.4291 55.8265 41.4332 54.4976 41.8283C53.7401 42.0538 53.2993 42.9703 53.4703 44.0582ZM55.1059 44.8484C54.1456 44.8484 54.0719 43.0461 54.6635 42.5752C54.8227 42.4489 55.1327 42.3876 55.3774 42.5085C56.0092 42.8188 56.0142 44.3397 55.5148 44.7077C55.4226 44.7763 55.2685 44.8484 55.1059 44.8484Z" fill="white"/>
<path fill-rule="evenodd" clip-rule="evenodd" d="M60.4167 44.0578C60.6195 45.3369 61.7692 45.7591 62.6255 45.4542C62.9641 45.3333 63.021 45.2558 63.2255 45.0519C63.3143 44.9635 63.2992 44.9671 63.3663 44.8643C63.5875 44.5251 63.7098 44.0181 63.6796 43.5653L63.6495 43.2207C63.6411 43.172 63.5841 42.9483 63.5623 42.8851C63.4635 42.5802 63.3043 42.3601 63.0864 42.1581C62.4797 41.597 61.5211 41.6439 61.005 42.0589C60.6949 42.3078 60.5039 42.6813 60.4184 43.107C60.4017 43.1918 60.3916 43.2965 60.3849 43.3939C60.3715 43.5924 60.3799 43.8233 60.4167 44.0578ZM62.0524 44.848C61.0787 44.848 61.0184 43.0223 61.6217 42.5658C61.7826 42.4431 62.106 42.389 62.339 42.5153C62.6875 42.7047 62.7495 43.1143 62.8032 43.4534C62.8602 43.8125 62.7831 44.1607 62.6926 44.3844C62.5853 44.6568 62.3641 44.848 62.0524 44.848Z" fill="white"/>
<path fill-rule="evenodd" clip-rule="evenodd" d="M64.416 45.4772C65.378 45.4772 65.2255 45.5602 65.2338 45.1579L65.2405 44.2306C65.2389 44.0736 65.2154 44.0826 65.3813 44.0826C65.9394 44.0826 65.9628 44.4164 66.241 45.0659C66.3131 45.2355 66.3818 45.4754 66.4639 45.4754H67.2197C67.1929 45.3257 66.7153 44.2288 66.6164 44.0736C66.541 43.9545 66.484 43.886 66.3784 43.821L66.2779 43.7561C66.9298 43.6966 67.0337 42.6466 66.5879 42.1486C66.169 41.6795 65.202 41.804 64.4378 41.804L64.416 45.4772ZM65.5589 43.4313H65.2573L65.2606 42.5022C65.9008 42.5022 65.9729 42.5076 66.0466 42.9677C66.0952 43.2798 65.8589 43.4313 65.5589 43.4313Z" fill="white"/>
<path fill-rule="evenodd" clip-rule="evenodd" d="M28.6312 45.4773H29.4507L29.4674 44.0827C30.1462 44.0827 30.1059 44.2217 30.4411 45.0046C30.5081 45.1634 30.5819 45.3258 30.6372 45.4773C31.4165 45.4773 31.4902 45.5441 31.4064 45.3528L31.2003 44.8603C31.1064 44.6348 31.0243 44.4291 30.9221 44.2144C30.8567 44.0791 30.7495 43.915 30.6288 43.8374C30.597 43.8175 30.5936 43.8193 30.5685 43.8049C30.5635 43.8031 30.5584 43.7995 30.5534 43.7959C30.5484 43.7941 30.5433 43.7905 30.5383 43.7869C30.4947 43.7598 30.5216 43.7778 30.4964 43.758C30.9405 43.7183 31.1483 43.2474 31.0612 42.69C30.9539 42.0098 30.4143 41.8077 29.7775 41.8077H28.72C28.6429 41.8077 28.6614 41.8979 28.6614 41.9719C28.663 42.0621 28.6597 42.1379 28.6597 42.2083L28.6463 43.6064C28.6429 43.9276 28.6396 44.2361 28.6396 44.532C28.6396 44.7034 28.6379 44.8333 28.6345 45.0028C28.6329 45.093 28.6362 45.1544 28.6362 45.2428C28.6345 45.3132 28.6245 45.3997 28.6312 45.4773ZM29.4725 43.4314C29.454 43.2132 29.506 42.6936 29.4758 42.5023C29.8311 42.5023 30.1998 42.441 30.2685 42.874C30.3657 43.4928 29.8194 43.4314 29.4725 43.4314Z" fill="white"/>
<path fill-rule="evenodd" clip-rule="evenodd" d="M40.709 45.4762H41.5503C41.5553 45.3824 41.6609 45.0865 41.6977 44.9566C41.7162 44.8916 41.7212 44.8014 41.7882 44.8014H42.9965C43.0183 44.9422 43.0552 45.0269 43.0854 45.1334C43.1222 45.2597 43.1474 45.3661 43.1893 45.4744H43.9652L43.6803 44.5543C43.4959 43.9679 42.9848 42.236 42.8222 41.803H41.8955L41.3022 43.6396C41.2754 43.7208 41.2503 43.7713 41.2218 43.8633L41.0006 44.5525C40.9453 44.7401 40.7174 45.3571 40.709 45.4762ZM42.3664 42.7754C42.4502 42.9775 42.5122 43.2246 42.5742 43.4465C42.5994 43.5349 42.7519 44.0762 42.7837 44.1267H41.9642L42.3664 42.7754Z" fill="white"/>
<path fill-rule="evenodd" clip-rule="evenodd" d="M34.9473 43.0155C35.1434 44.2531 36.536 43.7805 36.6315 44.3866C36.6818 44.706 36.3684 44.8521 36.1003 44.8521C35.5305 44.8521 35.0612 44.5075 34.9624 44.4805C34.9825 44.7348 34.9406 45.0379 34.9624 45.2941C35.0311 45.2995 35.1702 45.3609 35.2389 45.3843C35.8975 45.6098 36.655 45.6459 37.141 45.2346C37.4192 45 37.4912 44.6446 37.4175 44.1792C37.3454 43.7245 37.0287 43.481 36.6985 43.3493C36.5276 43.2807 36.3282 43.2302 36.1556 43.1851C35.9461 43.131 35.7333 43.0805 35.6981 42.8549C35.6059 42.2704 36.655 42.4165 37.2298 42.716L37.2348 41.9258L36.8326 41.8302C36.417 41.7436 35.9394 41.7075 35.5824 41.8338C35.1568 41.9817 34.845 42.3768 34.9473 43.0155Z" fill="white"/>
<path fill-rule="evenodd" clip-rule="evenodd" d="M67.8208 42.9891C68.0169 44.2268 69.4212 43.8317 69.5017 44.3368C69.6022 44.9737 68.8179 44.8762 68.3805 44.7283C68.1878 44.6634 67.9146 44.4956 67.8409 44.4757C67.851 44.5461 67.8459 45.2317 67.8359 45.2659C68.4124 45.5672 69.5017 45.7116 70.0195 45.2299C70.4653 44.8149 70.4603 43.8714 69.8117 43.4582C69.3257 43.1479 68.6386 43.2417 68.5766 42.8502C68.5029 42.3884 69.2168 42.3992 69.5972 42.5056C70.0514 42.6319 70.1067 42.7835 70.1184 42.6427V42.2837C70.1201 42.1683 70.1318 42.0456 70.1134 41.9265L70.1117 41.9211L69.7128 41.8237C69.2151 41.7046 68.5381 41.6974 68.1643 41.9951C68.1124 42.0366 68.094 42.0654 68.0487 42.1069C67.856 42.2873 67.7705 42.668 67.8208 42.9891Z" fill="white"/>
<path fill-rule="evenodd" clip-rule="evenodd" d="M25.1276 44.059C25.2666 44.9376 25.9269 45.5456 26.7431 45.5456C27.0648 45.5456 27.4989 45.4283 27.7318 45.3237C27.8341 45.2786 27.7871 45.3092 27.7955 44.9845L27.8022 44.4757C27.5726 44.6183 27.2458 44.8474 26.8688 44.8474C25.6169 44.8474 25.5566 42.2332 27.09 42.4605C27.2106 42.4786 27.3347 42.5309 27.4469 42.5868C27.648 42.6879 27.6531 42.7185 27.7721 42.7799C27.7587 42.6193 27.7955 42.2098 27.7804 42.0131C27.6615 41.9842 27.1051 41.683 26.6727 41.7461C26.2772 41.8038 25.9956 41.8435 25.7091 42.1123C25.5867 42.226 25.4946 42.3072 25.4124 42.4551L25.208 42.8827C25.0907 43.1822 25.0722 43.7126 25.1276 44.059Z" fill="white"/>
<path fill-rule="evenodd" clip-rule="evenodd" d="M32.5063 43.9427L32.5096 44.6986C32.5079 44.87 32.4895 45.3354 32.513 45.4744C33.4397 45.4744 33.3274 45.5483 33.3241 45.229C33.3224 45.1208 33.3274 45.0179 33.3274 44.9331L33.3375 44.0293C33.3392 43.8579 33.5704 43.5277 33.6542 43.3888L34.1134 42.5806C34.1938 42.438 34.2659 42.3153 34.3447 42.1782L34.519 41.8769C34.5391 41.8373 34.5592 41.803 34.4771 41.803H33.6358C33.5721 41.803 33.2872 42.4019 33.2537 42.4633C33.1867 42.5878 33.1381 42.6888 33.071 42.8115C33.0291 42.8891 32.9235 43.1092 32.8783 43.1507C32.818 42.9901 32.2046 41.9563 32.1476 41.803H31.3281C31.3985 41.9996 32.4912 43.8525 32.5063 43.9427Z" fill="white"/>
<path fill-rule="evenodd" clip-rule="evenodd" d="M37.9591 42.5481H38.9948C38.9797 42.6004 38.9763 43.1741 38.9814 43.2697C38.9864 43.3996 38.978 43.5133 38.978 43.6233C38.978 43.7623 38.9797 43.8633 38.9763 43.9986C38.9679 44.2494 38.9747 44.4767 38.9696 44.7257L38.9646 45.4744H39.7841C39.7941 45.2994 39.7908 45.0937 39.7925 44.9079C39.7941 44.704 39.7908 44.5236 39.7958 44.3342L39.8076 42.8945C39.8059 42.4615 39.7573 42.5445 40.0539 42.5463C40.1612 42.5463 40.2701 42.5463 40.3773 42.5463C40.4779 42.5463 40.5801 42.5463 40.6807 42.5481C40.8349 42.5499 40.8533 42.5589 40.855 42.411C40.8583 42.2594 40.865 41.9527 40.8416 41.803H38.0161C37.9272 41.803 37.9557 41.9852 37.9557 42.1458C37.9541 42.2684 37.9356 42.3965 37.9591 42.5481Z" fill="white"/>
<path fill-rule="evenodd" clip-rule="evenodd" d="M57.1798 42.5492H58.1501V43.2835C58.1467 43.5379 58.1451 43.7652 58.1451 44.0142C58.1467 44.2469 58.1417 44.5175 58.1367 44.7394L58.14 45.4773H58.8942C58.9662 45.4773 58.9512 45.4286 58.9528 45.3528L58.9562 44.8008C58.9545 44.5446 58.9662 44.2956 58.9646 44.0539L58.9746 42.9317C58.978 42.8162 58.988 42.6683 58.9696 42.551H59.9617C60.0505 42.551 60.022 42.367 60.022 42.2101C60.022 42.1054 60.0354 41.9268 60.017 41.8077H57.1261L57.1161 42.3959C57.1127 42.4825 57.091 42.5492 57.1798 42.5492Z" fill="white"/>
<path fill-rule="evenodd" clip-rule="evenodd" d="M44.5902 45.4755H46.8124C46.8224 45.3095 46.8358 44.9378 46.8057 44.7556H45.4683C45.3644 44.7556 45.4063 44.6329 45.4063 44.3605L45.4331 41.8799C45.4248 41.7842 45.413 41.8041 45.1315 41.8059C44.9589 41.8059 44.7863 41.8059 44.6136 41.8059C44.5751 42.4752 44.5969 43.7796 44.5852 44.5373C44.5818 44.7015 44.5784 44.835 44.5784 44.9884C44.5784 45.1453 44.5634 45.3005 44.5902 45.4755Z" fill="white"/>
<path d="M32.4395 32.0822H32.8936L33.807 34.359L33.3042 34.3824L32.4395 32.0822Z" fill="white"/>
<path d="M34.4805 32.204H34.8776L35.5011 34.4212L35.0603 34.387L34.4805 32.204Z" fill="white"/>
<path d="M36.4082 32.354L36.8154 32.4821L36.9813 34.6272L36.5791 34.5532L36.4082 32.354Z" fill="white"/>
<path d="M38.1523 33.0059L38.5495 33.1267V35.0824L38.1523 34.8984V33.0059Z" fill="white"/>
</svg>
