<svg width="80" height="80" viewBox="0 0 80 80" fill="none" xmlns="http://www.w3.org/2000/svg">
<rect width="80" height="80" rx="8" fill="#1E8FFE"/>
<rect width="80" height="80" rx="8" fill="#060917"/>
<path fill-rule="evenodd" clip-rule="evenodd" d="M39.7428 55.9304L39.4568 56.1624C37.5326 57.7236 34.4129 57.7236 32.4887 56.1624L16.1092 42.8727C14.185 41.3115 14.185 38.7803 16.1092 37.2191L32.6019 23.8375C34.5261 22.2763 37.6458 22.2763 39.57 23.8375L39.8559 24.0695L40.1419 23.8375C42.0661 22.2763 45.1858 22.2763 47.11 23.8375L63.4895 37.1272C65.4137 38.6884 65.4137 41.2197 63.4895 42.7809L46.9968 56.1624C45.0726 57.7236 41.9529 57.7236 40.0287 56.1624L39.7428 55.9304ZM16.908 38.1748L33.4008 24.7933C34.8609 23.6085 37.311 23.6085 38.7711 24.7933L38.8675 24.8715L23.6492 37.2191C21.725 38.7803 21.725 41.3115 23.6492 42.8727L38.7544 55.1284L38.6579 55.2067C37.1978 56.3914 34.7477 56.3914 33.2876 55.2067L16.908 41.917C16.2116 41.3519 15.9227 40.6692 15.9227 40.0459C15.9227 39.4225 16.2116 38.7398 16.908 38.1748ZM40.8443 24.8715L40.9408 24.7933C42.4009 23.6085 44.851 23.6085 46.3111 24.7933L62.6907 38.083C63.3871 38.648 63.676 39.3307 63.676 39.954C63.676 40.5774 63.3871 41.2601 62.6907 41.8251L46.1979 55.2067C44.7378 56.3914 42.2877 56.3914 40.8276 55.2067L40.7312 55.1284L55.9495 42.7809C57.8737 41.2197 57.8737 38.6884 55.9495 37.1272L40.8443 24.8715ZM39.8559 25.6734L55.1507 38.083C55.8471 38.648 56.136 39.3307 56.136 39.954C56.136 40.5774 55.8471 41.2601 55.1507 41.8251L39.7428 54.3265L24.448 41.917C23.7516 41.3519 23.4627 40.6692 23.4627 40.0459C23.4627 39.4225 23.7516 38.7398 24.448 38.1748L39.8559 25.6734Z" fill="url(#paint0_linear_1_561)"/>
<defs>
<linearGradient id="paint0_linear_1_561" x1="14.666" y1="41.7931" x2="63.676" y2="41.7931" gradientUnits="userSpaceOnUse">
<stop stop-color="#4B6CEB"/>
<stop offset="1" stop-color="#121523"/>
</linearGradient>
</defs>
</svg>
